<?xml version="1.0" encoding="UTF-8"?>
<svg version="1.1" xmlns="http://www.w3.org/2000/svg" width="500" height="500">
<path d="M0 0 C-0.05800781 0.82242187 -0.11601562 1.64484375 -0.17578125 2.4921875 C-0.47165006 9.8128273 0.16795111 14.7294948 3.90625 21.07421875 C5 23 5 23 5 25 C5.59208252 25.27505371 6.18416504 25.55010742 6.79418945 25.83349609 C8.89869797 26.94642821 10.47466029 28.14167225 12.29296875 29.6640625 C18.92960109 34.72712367 26.81593212 37.85129927 34.36499023 41.31738281 C46.04985548 46.70587807 57.16654845 52.41425467 65 63 C65 63.66 65 64.32 65 65 C65.66 65 66.32 65 67 65 C66.99476318 64.09644775 66.98952637 63.19289551 66.98413086 62.26196289 C66.96712314 58.92048511 66.95456667 55.57905308 66.94506836 52.23754883 C66.94002899 50.78929927 66.93319747 49.34105483 66.92456055 47.89282227 C66.91247753 45.81525412 66.90676789 43.73775303 66.90234375 41.66015625 C66.89710693 40.40855713 66.89187012 39.15695801 66.88647461 37.86743164 C67 35 67 35 68 34 C70.14373316 33.89509918 72.29096807 33.8614282 74.43725586 33.85473633 C75.1107457 33.85137772 75.78423553 33.8480191 76.47813416 33.84455872 C78.72372248 33.83500085 80.96923628 33.83310149 83.21484375 33.83203125 C84.78455129 33.82881588 86.35425854 33.82545159 87.92396545 33.82194519 C91.23211355 33.81593767 94.5402355 33.81410634 97.84838867 33.81469727 C102.03584575 33.81479759 106.22312824 33.80128954 110.4105444 33.78392506 C113.66505152 33.77264573 116.91951902 33.77078305 120.17404366 33.77130699 C121.71380768 33.77014512 123.25357336 33.76582743 124.79331779 33.75797462 C133.15407058 33.71941489 141.38484934 34.00262636 149.70141602 34.90893555 C150.44012153 34.98913091 151.17882704 35.06932627 151.93991756 35.15195179 C169.17309606 37.20919729 183.99339569 45.97685896 197 57 C198.10794922 57.93585938 198.10794922 57.93585938 199.23828125 58.890625 C213.49242447 72.03071695 223.28116811 92.31059873 224.11230469 111.60742188 C224.93627016 136.16322458 220.96299072 156.64907052 205 176 C204.33613281 176.83789062 203.67226563 177.67578125 202.98828125 178.5390625 C189.71235365 194.39164887 170.30963156 204.04405155 150 207 C141.99843241 207.70616278 133.96417425 207.69358561 125.9375 207.75 C118.698125 207.8325 111.45875 207.915 104 208 C103.67 226.48 103.34 244.96 103 264 C122.98700825 264 137.83917683 263.75056139 155 255 C156.61538717 254.41046159 158.24079338 253.84766351 159.875 253.3125 C166.89562423 250.82502849 173.42217009 247.4159591 180.02880859 244.0078125 C182.74792322 242.61760874 185.48889358 241.27247491 188.23168945 239.9296875 C190.2548476 238.90505484 190.2548476 238.90505484 193 237 C194.74543813 236.85127628 196.49209464 236.70924449 198.24169922 236.62231445 C209.95718272 235.93032468 216.72295716 230.27635485 225.42578125 222.9609375 C235.80032745 214.82614652 249.3406521 212.59015085 262.25 212.5 C263.02335693 212.49363525 263.79671387 212.48727051 264.59350586 212.48071289 C269.72702038 212.59681007 273.40381587 213.71406715 278 216 C278 218.64 278 221.28 278 224 C277.278125 224.103125 276.55625 224.20625 275.8125 224.3125 C269.50744908 225.85373467 266.47642779 229.27208712 263.08203125 234.6171875 C261.74598852 237.55937547 262.06956569 239.67005981 262.73291016 242.78955078 C263.43691123 248.61589973 261.54838625 254.8183825 258.19116211 259.54858398 C255.99123287 261.92767936 253.70756301 264.13041753 251.3125 266.3125 C250.14557617 267.43108398 250.14557617 267.43108398 248.95507812 268.57226562 C245.39067184 271.96424859 241.74051323 275.2396824 238.01171875 278.44921875 C233.27020341 282.56246121 228.90082946 287.02853123 224.5 291.5 C219.37137865 296.71094272 214.23409559 301.80939669 208.66015625 306.54638672 C206.79908366 308.13168342 206.79908366 308.13168342 204.5 310.625 C194.0321948 320.56941494 178.56942922 326.36615123 165.41601562 331.96484375 C157.30231572 335.44120669 149.2387942 339.03460251 141.16748047 342.60791016 C138.14131684 343.93789205 135.10548582 345.24283048 132.06640625 346.54296875 C121.86675271 350.96223545 112.82041172 355.83185332 103.79296875 362.3046875 C84.02180354 376.46864579 84.02180354 376.46864579 71.28222656 374.46679688 C64.23713391 373.02582371 57.40245869 370.76716261 50.55078125 368.61328125 C39.87161143 365.26625365 29.05564118 362.40598108 18.25 359.5 C17.20269714 359.21812836 16.15539429 358.93625671 15.07635498 358.64584351 C9.91550058 357.25793503 4.75352929 355.87428379 -0.40966797 354.49511719 C-3.81900621 353.58441195 -7.22717989 352.66973465 -10.63330078 351.74707031 C-19.39338556 349.37579177 -28.17806318 347.13121292 -37 345 C-38.35470909 344.66395517 -39.70936251 344.32768586 -41.06396484 343.99121094 C-70.99777181 336.63640143 -102.85581221 333.27156513 -132.62109375 343.22216797 C-135.72018074 344.23547782 -138.86491036 345.1042601 -142 346 C-142 316.63 -142 287.26 -142 257 C-135.57729426 254.24741182 -129.28709705 252.09763244 -122.625 250.0625 C-121.4704834 249.70913574 -120.3159668 249.35577148 -119.12646484 248.99169922 C-108.14705419 245.67383799 -97.20897676 242.63633125 -85.8125 241.1875 C-81.05944538 240.47226606 -77.21200545 238.79463979 -73 236.5625 C-59.4915643 229.47162048 -46.94756488 229.42187402 -32 230 C-31.17467773 230.02658691 -30.34935547 230.05317383 -29.49902344 230.08056641 C-2.89189384 231.14419705 22.26841861 241.83219699 46 253 C46 236.17 46 219.34 46 202 C51.28 199.36 56.56 196.72 62 194 C67.43022277 190.37985149 70.92707662 187.00962637 75 182 C74.47680176 182.20157715 73.95360352 182.4031543 73.41455078 182.61083984 C55.56725221 189.4473958 36.07121988 195.82967145 17.37109375 187.8828125 C6.76442916 182.66061603 -0.49909321 174.83049568 -6.13671875 164.54296875 C-7.22293729 161.34329331 -7.32771494 160.12995616 -6 157 C4.13879968 145.84970682 20.86572237 139.46956733 35.53515625 138.73046875 C54.26443831 138.15035824 69.60813787 143.87007943 86.625 151.0625 C107.36342661 159.82287234 130.48318703 167.32474955 152.9375 159.9375 C163.22541344 155.48023653 171.28103988 148.44892308 176.3203125 138.35546875 C180.65830851 127.26779363 180.88411163 114.19114626 176.125 103.21875 C170.18354317 91.50087681 161.45052692 84.95768442 149.25 80.6875 C131.44989826 77.09223193 113.85152949 83.18867799 97.625 90 C77.68300468 98.36058282 56.89304149 104.13576961 36 96 C22.89511856 89.44755928 14.83236263 78.95553027 7 67 C6.34 66.01 5.68 65.02 5 64 C5.72198866 75.07049274 12.29989358 84.36675412 20 92 C30.13243702 100.43886795 43.69699486 106.64493759 57 107 C58.09570312 107.05027344 59.19140625 107.10054688 60.3203125 107.15234375 C70.7362174 107.41969244 80.16680579 105.75758297 90.125 102.8125 C93 102 93 102 97 102 C96.7834375 102.53625 96.566875 103.0725 96.34375 103.625 C92.4589178 114.56008322 92.2482224 127.97603695 97.2109375 138.58984375 C98.07861446 140.33773636 98.96636426 142.07588734 99.87890625 143.80078125 C101 146 101 146 102 149 C99.3394912 147.70029655 96.77675518 146.30976652 94.234375 144.79296875 C77.34780441 134.91004495 61.0307045 130.87481785 41.78515625 128.29296875 C17.09526837 124.97624986 -4.34344384 118.88842527 -21 99 C-31.85555151 83.7009844 -35.08193128 66.48241988 -32.4921875 48.015625 C-29.17378571 29.32577583 -20.1040221 14.55105216 -6 2 C-3 0 -3 0 0 0 Z " fill="#FC8F0A" transform="translate(196,29)"/>
<path d="M0 0 C-0.08701172 1.23363281 -0.08701172 1.23363281 -0.17578125 2.4921875 C-0.47165006 9.8128273 0.16795111 14.7294948 3.90625 21.07421875 C5 23 5 23 5 25 C5.59208252 25.27505371 6.18416504 25.55010742 6.79418945 25.83349609 C8.89869797 26.94642821 10.47466029 28.14167225 12.29296875 29.6640625 C18.92960109 34.72712367 26.81593212 37.85129927 34.36499023 41.31738281 C46.04985548 46.70587807 57.16654845 52.41425467 65 63 C65 63.66 65 64.32 65 65 C65.66 65 66.32 65 67 65 C66.99476318 64.09644775 66.98952637 63.19289551 66.98413086 62.26196289 C66.96712314 58.92048511 66.95456667 55.57905308 66.94506836 52.23754883 C66.94002899 50.78929927 66.93319747 49.34105483 66.92456055 47.89282227 C66.91247753 45.81525412 66.90676789 43.73775303 66.90234375 41.66015625 C66.89710693 40.40855713 66.89187012 39.15695801 66.88647461 37.86743164 C67 35 67 35 68 34 C70.14373316 33.89509918 72.29096807 33.8614282 74.43725586 33.85473633 C75.1107457 33.85137772 75.78423553 33.8480191 76.47813416 33.84455872 C78.72372248 33.83500085 80.96923628 33.83310149 83.21484375 33.83203125 C84.78455129 33.82881588 86.35425854 33.82545159 87.92396545 33.82194519 C91.23211355 33.81593767 94.5402355 33.81410634 97.84838867 33.81469727 C102.03584575 33.81479759 106.22312824 33.80128954 110.4105444 33.78392506 C113.66505152 33.77264573 116.91951902 33.77078305 120.17404366 33.77130699 C121.71380768 33.77014512 123.25357336 33.76582743 124.79331779 33.75797462 C133.15407058 33.71941489 141.38484934 34.00262636 149.70141602 34.90893555 C150.44012153 34.98913091 151.17882704 35.06932627 151.93991756 35.15195179 C169.17309606 37.20919729 183.99339569 45.97685896 197 57 C197.73863281 57.62390625 198.47726562 58.2478125 199.23828125 58.890625 C213.49242447 72.03071695 223.28116811 92.31059873 224.11230469 111.60742188 C224.93627016 136.16322458 220.96299072 156.64907052 205 176 C204.33613281 176.83789062 203.67226563 177.67578125 202.98828125 178.5390625 C189.71235365 194.39164887 170.30963156 204.04405155 150 207 C141.99843241 207.70616278 133.96417425 207.69358561 125.9375 207.75 C118.698125 207.8325 111.45875 207.915 104 208 C103.67 226.48 103.34 244.96 103 264 C109.27 264 115.54 264 122 264 C122 264.33 122 264.66 122 265 C102.48122497 265.36523953 83.92900172 265.45298279 65 260 C62.57904083 259.53990821 60.15696773 259.13982465 57.72265625 258.7578125 C55 258 55 258 47 254 C47 236.51 47 219.02 47 201 C50.96 199.35 54.92 197.7 59 196 C65.55855575 191.88183709 70.14036787 187.93267192 75 182 C74.47680176 182.20157715 73.95360352 182.4031543 73.41455078 182.61083984 C55.56725221 189.4473958 36.07121988 195.82967145 17.37109375 187.8828125 C6.76442916 182.66061603 -0.49909321 174.83049568 -6.13671875 164.54296875 C-7.22293729 161.34329331 -7.32771494 160.12995616 -6 157 C4.13879968 145.84970682 20.86572237 139.46956733 35.53515625 138.73046875 C54.26443831 138.15035824 69.60813787 143.87007943 86.625 151.0625 C107.36342661 159.82287234 130.48318703 167.32474955 152.9375 159.9375 C163.22541344 155.48023653 171.28103988 148.44892308 176.3203125 138.35546875 C180.65830851 127.26779363 180.88411163 114.19114626 176.125 103.21875 C170.18354317 91.50087681 161.45052692 84.95768442 149.25 80.6875 C131.44989826 77.09223193 113.85152949 83.18867799 97.625 90 C77.68300468 98.36058282 56.89304149 104.13576961 36 96 C22.89511856 89.44755928 14.83236263 78.95553027 7 67 C6.34 66.01 5.68 65.02 5 64 C5.72198866 75.07049274 12.29989358 84.36675412 20 92 C30.13243702 100.43886795 43.69699486 106.64493759 57 107 C58.09570312 107.05027344 59.19140625 107.10054688 60.3203125 107.15234375 C70.7362174 107.41969244 80.16680579 105.75758297 90.125 102.8125 C93 102 93 102 97 102 C96.7834375 102.53625 96.566875 103.0725 96.34375 103.625 C92.4589178 114.56008322 92.2482224 127.97603695 97.2109375 138.58984375 C98.07861446 140.33773636 98.96636426 142.07588734 99.87890625 143.80078125 C101 146 101 146 102 149 C99.3394912 147.70029655 96.77675518 146.30976652 94.234375 144.79296875 C77.34780441 134.91004495 61.0307045 130.87481785 41.78515625 128.29296875 C17.09526837 124.97624986 -4.34344384 118.88842527 -21 99 C-31.85555151 83.7009844 -35.08193128 66.48241988 -32.4921875 48.015625 C-29.17378571 29.32577583 -20.1040221 14.55105216 -6 2 C-3 0 -3 0 0 0 Z " fill="#14F306" transform="translate(196,29)"/>
<path d="M0 0 C0.77335693 -0.00636475 1.54671387 -0.01272949 2.34350586 -0.01928711 C7.47702038 0.09681007 11.15381587 1.21406715 15.75 3.5 C15.75 6.14 15.75 8.78 15.75 11.5 C15.028125 11.603125 14.30625 11.70625 13.5625 11.8125 C7.25744908 13.35373467 4.22642779 16.77208712 0.83203125 22.1171875 C-0.49859404 25.04744535 -0.20798417 27.14040194 0.5078125 30.2421875 C1.02148476 35.03093859 -0.6233704 40.02139429 -2.25 44.5 C-3.24 44.995 -3.24 44.995 -4.25 45.5 C-3.92 42.86 -3.59 40.22 -3.25 37.5 C-3.70375 37.995 -4.1575 38.49 -4.625 39 C-6.25 40.5 -6.25 40.5 -8.25 40.5 C-8.25 41.16 -8.25 41.82 -8.25 42.5 C-9.78195272 43.87212301 -11.37921081 45.1715446 -13 46.4375 C-17.23587829 49.82077202 -21.28825592 53.30129241 -25.25 57 C-30.72194123 62.08556202 -36.4259709 66.82057778 -42.25 71.5 C-44.02174085 72.95723064 -45.79256333 74.41557854 -47.5625 75.875 C-54.04695932 81.18216555 -60.63365753 86.35863833 -67.25 91.5 C-68.00410156 92.10070312 -68.75820313 92.70140625 -69.53515625 93.3203125 C-71.25 94.5 -71.25 94.5 -73.25 94.5 C-73.25 95.16 -73.25 95.82 -73.25 96.5 C-74.47976563 96.89832031 -74.47976563 96.89832031 -75.734375 97.3046875 C-76.81203125 97.65789062 -77.8896875 98.01109375 -79 98.375 C-80.06734375 98.72304688 -81.1346875 99.07109375 -82.234375 99.4296875 C-85.17491693 100.38539531 -85.17491693 100.38539531 -87.453125 101.6953125 C-89.25 102.5 -89.25 102.5 -92.25 101.5 C-87.3 99.19 -82.35 96.88 -77.25 94.5 C-78.57 93.51 -79.89 92.52 -81.25 91.5 C-83.98398135 92.20957237 -83.98398135 92.20957237 -86.25 93.5 C-85.755 91.52 -85.755 91.52 -85.25 89.5 C-87.23 90.49 -87.23 90.49 -89.25 91.5 C-88.425 90.530625 -87.6 89.56125 -86.75 88.5625 C-84.14485117 84.89599424 -83.56210584 82.10239333 -83.8203125 77.64453125 C-84.49384605 74.28298653 -86.08195309 72.1016563 -88.25 69.5 C-88.6622583 68.96141357 -89.0745166 68.42282715 -89.49926758 67.86791992 C-92.08323302 65.84896045 -94.20421447 66.06445506 -97.44921875 65.98828125 C-99.26196289 65.93510742 -99.26196289 65.93510742 -101.11132812 65.88085938 C-102.37396484 65.85830078 -103.63660156 65.83574219 -104.9375 65.8125 C-106.21173828 65.77833984 -107.48597656 65.74417969 -108.79882812 65.70898438 C-111.94913103 65.62639216 -115.09915157 65.55727665 -118.25 65.5 C-118.25 65.17 -118.25 64.84 -118.25 64.5 C-110.99 64.17 -103.73 63.84 -96.25 63.5 C-110.00072614 57.89393473 -122.49106089 54.91150576 -137.25 53.5 C-134.44833603 52.00984653 -131.74491773 50.96622269 -128.6953125 50.09765625 C-127.83292969 49.84693359 -126.97054688 49.59621094 -126.08203125 49.33789062 C-124.28559726 48.82332764 -122.48872499 48.31029219 -120.69140625 47.79882812 C-115.92277926 46.40945916 -111.65809869 44.83294112 -107.25 42.5 C-105.63461283 41.91046159 -104.00920662 41.34766351 -102.375 40.8125 C-95.35437577 38.32502849 -88.82782991 34.9159591 -82.22119141 31.5078125 C-79.50207678 30.11760874 -76.76110642 28.77247491 -74.01831055 27.4296875 C-71.9951524 26.40505484 -71.9951524 26.40505484 -69.25 24.5 C-67.50456187 24.35127628 -65.75790536 24.20924449 -64.00830078 24.12231445 C-52.29281728 23.43032468 -45.52704284 17.77635485 -36.82421875 10.4609375 C-26.44967255 2.32614652 -12.9093479 0.09015085 0 0 Z " fill="#FB8B0B" transform="translate(458.25,241.5)"/>
<path d="M0 0 C7.32898861 5.20865228 12.18420322 11.10426164 14 20 C14.96965338 29.95086915 12.59651569 38.50905628 6.4765625 46.46875 C0.59732463 52.56573742 -6.93779013 55.00949857 -15.25 55.375 C-22.4495299 55.23616609 -28.62063741 52.95252061 -34.8125 49.375 C-41.81407872 41.77328596 -45.54646321 33.18343453 -45.30859375 22.87109375 C-44.40282202 14.44397706 -40.31692964 7.55198894 -34 2 C-23.34330977 -5.2364687 -11.45435948 -6.57701932 0 0 Z " fill="#34ED18" transform="translate(346,124)"/>
<path d="M0 0 C4.35325518 -0.23344258 8.70489438 -0.3747943 13.0625 -0.5 C14.29162109 -0.56703125 15.52074219 -0.6340625 16.78710938 -0.703125 C25.76841571 -0.89679198 25.76841571 -0.89679198 29.39794922 1.74609375 C33.63079357 6.53170668 35.4819884 10.23438773 35.41015625 16.6171875 C34.67915643 20.86394835 32.11264976 23.20585393 29 26 C28.175 26.804375 27.35 27.60875 26.5 28.4375 C19.74812849 31.45172835 12.40572639 31.07451411 5.421875 28.87109375 C2.55219976 27.67766246 -0.23518271 26.41785502 -3 25 C-3.08132642 21.95778935 -3.14065374 18.9177762 -3.1875 15.875 C-3.21263672 15.0190625 -3.23777344 14.163125 -3.26367188 13.28125 C-3.32398809 8.05384474 -2.85261993 4.56718676 0 0 Z " fill="#FCFCFB" transform="translate(340,307)"/>
<path d="M0 0 C20.66869636 8.73091674 41.72880894 14.74593783 64.375 9.9375 C64.045 11.2575 63.715 12.5775 63.375 13.9375 C44.63975258 19.47891121 24.02575227 18.29421501 5.375 12.9375 C4.385 11.9475 4.385 11.9475 3.375 10.9375 C1.43606451 10.4445503 -0.50416139 9.95558212 -2.453125 9.50390625 C-5.72397319 8.65089728 -8.58789005 7.42506406 -11.625 5.9375 C-12.12 4.9475 -12.12 4.9475 -12.625 3.9375 C-14.64963255 3.28536708 -14.64963255 3.28536708 -16.625 2.9375 C-16.625 2.2775 -16.625 1.6175 -16.625 0.9375 C-17.46546875 0.98648438 -18.3059375 1.03546875 -19.171875 1.0859375 C-23.14488547 0.91515198 -26.14024026 -0.08579825 -29.875 -1.4375 C-39.42800945 -4.88383885 -48.33261451 -6.39989873 -58.5 -6.3125 C-59.88445312 -6.32410156 -59.88445312 -6.32410156 -61.296875 -6.3359375 C-62.63105469 -6.33207031 -62.63105469 -6.33207031 -63.9921875 -6.328125 C-65.18497314 -6.32474121 -65.18497314 -6.32474121 -66.40185547 -6.32128906 C-68.85945647 -6.03520768 -70.44725791 -5.19186981 -72.625 -4.0625 C-74.875 -4.4375 -74.875 -4.4375 -76.625 -5.0625 C-50.32145231 -18.1642671 -25.76349022 -10.88930823 0 0 Z " fill="#18D816" transform="translate(282.625,180.0625)"/>
<path d="M0 0 C-0.27964254 6.57159968 -2.70436599 11.04421444 -7 16 C-13.7694163 21.65945128 -21.37855111 23.48822353 -30.0859375 23.3203125 C-36.95684019 22.56506582 -44.18584655 20.09733895 -49 15 C-52.51131993 10.44213067 -54.74493917 6.95951338 -54 1 C-53.34 1 -52.68 1 -52 1 C-51.731875 1.639375 -51.46375 2.27875 -51.1875 2.9375 C-50.11332248 5.33131686 -50.11332248 5.33131686 -47 6 C-47 6.99 -47 7.98 -47 9 C-45.88625 9.433125 -45.88625 9.433125 -44.75 9.875 C-42 11 -42 11 -40.31640625 12.05859375 C-36.978599 13.41510563 -33.72990421 13.24964744 -30.1875 13.1875 C-29.50107422 13.18685547 -28.81464844 13.18621094 -28.10742188 13.18554688 C-20.54827836 13.12118331 -15.1785412 12.79991308 -9.25 7.625 C-8.32703125 6.83351562 -7.4040625 6.04203125 -6.453125 5.2265625 C-5.01553207 3.92174089 -3.59810717 2.59277231 -2.234375 1.2109375 C-1 0 -1 0 0 0 Z " fill="#34A725" transform="translate(358,156)"/>
<path d="M0 0 C1.88671875 0.2578125 1.88671875 0.2578125 3.875 1.3125 C6.65590537 5.0885069 8.79335161 9.11756723 10.875 13.3125 C10.875 9.0225 10.875 4.7325 10.875 0.3125 C12.525 0.3125 14.175 0.3125 15.875 0.3125 C16.875 1.3125 16.875 1.3125 16.98852539 3.35375977 C16.98328857 4.22830811 16.97805176 5.10285645 16.97265625 6.00390625 C16.96943359 6.94814453 16.96621094 7.89238281 16.96289062 8.86523438 C16.95451172 9.85845703 16.94613281 10.85167969 16.9375 11.875 C16.93298828 12.87208984 16.92847656 13.86917969 16.92382812 14.89648438 C16.91200007 17.36854849 16.89551849 19.84049518 16.875 22.3125 C15.03125 22.9375 15.03125 22.9375 12.875 23.3125 C8.65386588 19.93559271 6.36016579 16.00670205 3.875 11.3125 C3.545 14.9425 3.215 18.5725 2.875 22.3125 C1.555 22.6425 0.235 22.9725 -1.125 23.3125 C-3.55184723 20.88565277 -3.42064393 20.11440342 -3.57421875 16.77734375 C-3.61740234 15.88595703 -3.66058594 14.99457031 -3.70507812 14.07617188 C-3.74052734 13.14353516 -3.77597656 12.21089844 -3.8125 11.25 C-3.85955078 10.31349609 -3.90660156 9.37699219 -3.95507812 8.41210938 C-4.18059495 3.30655633 -4.18059495 3.30655633 -4.125 1.3125 C-3.125 0.3125 -3.125 0.3125 0 0 Z " fill="#36F527" transform="translate(379.125,429.6875)"/>
<path d="M0 0 C0 0.66 0 1.32 0 2 C-3.3 2.66 -6.6 3.32 -10 4 C-10 4.66 -10 5.32 -10 6 C-9.45472656 6.10957031 -8.90945313 6.21914063 -8.34765625 6.33203125 C-3.63385696 7.32313777 0.86043932 8.56380631 5.40625 10.1484375 C9.77672805 11.58332336 14.22713672 12.74131629 18.66796875 13.9375 C26.41848564 16.40894266 31.03497225 19.87427871 35 27 C36.77684183 33.44386309 34.17137504 38.51224056 31.09375 44.12890625 C30.7328125 44.74636719 30.371875 45.36382812 30 46 C29.01 46 28.02 46 27 46 C27.33 45.01 27.66 44.02 28 43 C26.68 43.66 25.36 44.32 24 45 C24.825 44.030625 25.65 43.06125 26.5 42.0625 C29.10514883 38.39599424 29.68789416 35.60239333 29.4296875 31.14453125 C28.75615395 27.78298653 27.16804691 25.6016563 25 23 C24.5877417 22.46141357 24.1754834 21.92282715 23.75073242 21.36791992 C21.16676698 19.34896045 19.04578553 19.56445506 15.80078125 19.48828125 C13.98803711 19.43510742 13.98803711 19.43510742 12.13867188 19.38085938 C10.87603516 19.35830078 9.61339844 19.33574219 8.3125 19.3125 C6.40114258 19.26125977 6.40114258 19.26125977 4.45117188 19.20898438 C1.30086897 19.12639216 -1.84915157 19.05727665 -5 19 C-5 18.67 -5 18.34 -5 18 C2.26 17.67 9.52 17.34 17 17 C3.24927386 11.39393473 -9.24106089 8.41150576 -24 7 C-19.94545492 4.8694828 -15.82073687 3.64743332 -11.4375 2.375 C-10.66986328 2.14554687 -9.90222656 1.91609375 -9.11132812 1.6796875 C-8.37205078 1.463125 -7.63277344 1.2465625 -6.87109375 1.0234375 C-6.20005615 0.82669434 -5.52901855 0.62995117 -4.83764648 0.42724609 C-3 0 -3 0 0 0 Z " fill="#C66B16" transform="translate(345,288)"/>
<path d="M0 0 C1.74965358 -0.05429959 3.49979787 -0.09292823 5.25 -0.125 C6.22453125 -0.14820313 7.1990625 -0.17140625 8.203125 -0.1953125 C11.06988363 0.00488014 12.63634298 0.39570791 15 2 C16.375 4.875 16.375 4.875 17 8 C16.125 10.375 16.125 10.375 15 12 C14.34 12 13.68 12 13 12 C13.639375 13.093125 14.27875 14.18625 14.9375 15.3125 C16.26601325 17.5838291 17.15813297 19.47439892 18 22 C16.3125 22.8125 16.3125 22.8125 14 23 C11.12969001 20.53973429 9.09673857 18.14510786 7 15 C6.67 17.31 6.34 19.62 6 22 C5.01 22.33 4.02 22.66 3 23 C0.95529751 21.33263592 0.07433079 20.47502434 -0.34057617 17.82348633 C-0.32486572 17.00130615 -0.30915527 16.17912598 -0.29296875 15.33203125 C-0.28330078 14.43935547 -0.27363281 13.54667969 -0.26367188 12.62695312 C-0.23853516 11.69818359 -0.21339844 10.76941406 -0.1875 9.8125 C-0.17396484 8.87212891 -0.16042969 7.93175781 -0.14648438 6.96289062 C-0.11113096 4.64134962 -0.06178674 2.32096347 0 0 Z M6 4 C6 5.98 6 7.96 6 10 C7.65 9.67 9.3 9.34 11 9 C10.67 7.35 10.34 5.7 10 4 C8.68 4 7.36 4 6 4 Z " fill="#39F52A" transform="translate(205,430)"/>
<path d="M0 0 C4.20606417 0.06017259 7.09940843 0.20104041 10.25 3.25 C11.25 6.125 11.25 6.125 11.25 9.25 C10.734375 10.095625 10.21875 10.94125 9.6875 11.8125 C9.213125 12.616875 8.73875 13.42125 8.25 14.25 C8.94485264 17.03223378 8.94485264 17.03223378 10.25 19.25 C10.91 19.25 11.57 19.25 12.25 19.25 C12.25 20.24 12.25 21.23 12.25 22.25 C10.5625 23.0625 10.5625 23.0625 8.25 23.25 C5.37969001 20.78973429 3.34673857 18.39510786 1.25 15.25 C1.25 17.56 1.25 19.87 1.25 22.25 C-2.5 23.375 -2.5 23.375 -4.75 22.25 C-4.94590444 18.77125243 -5.13031592 15.29199096 -5.3125 11.8125 C-5.36857422 10.81927734 -5.42464844 9.82605469 -5.48242188 8.80273438 C-5.53076172 7.85849609 -5.57910156 6.91425781 -5.62890625 5.94140625 C-5.6760376 5.06685791 -5.72316895 4.19230957 -5.77172852 3.29125977 C-5.7299228 -0.63612915 -3.35827046 0.05961427 0 0 Z M0.25 4.25 C0.25 6.23 0.25 8.21 0.25 10.25 C1.9 9.92 3.55 9.59 5.25 9.25 C4.92 7.6 4.59 5.95 4.25 4.25 C2.93 4.25 1.61 4.25 0.25 4.25 Z " fill="#33F523" transform="translate(445.75,429.75)"/>
<path d="M0 0 C2.5904609 3.3425302 3.76340653 6.25844996 3.9375 10.5 C2.86423718 14.13716845 1.7830568 16.56049244 -0.75 19.375 C-5.13872042 21.51005318 -9.09870185 22.1441939 -13.765625 20.61328125 C-16.42952479 18.16231223 -16.45871288 17.52409769 -16.76953125 14.05078125 C-16.82926066 12.3053553 -16.86350206 10.55890979 -16.875 8.8125 C-16.90013672 7.91982422 -16.92527344 7.02714844 -16.95117188 6.10742188 C-17.01007338 3.90450561 -17.04632754 1.70357681 -17.0625 -0.5 C-11.48907306 -2.35780898 -5.31723868 -2.6043618 0 0 Z M-11.0625 2.5 C-11.0625 7.12 -11.0625 11.74 -11.0625 16.5 C-6.32500374 18.05256876 -6.32500374 18.05256876 -3.75 16 C-1.46278129 12.61152784 -1.56075628 10.51394973 -2.0625 6.5 C-3.01423938 3.97959573 -3.01423938 3.97959573 -5.0625 2.5 C-7.0425 2.5 -9.0225 2.5 -11.0625 2.5 Z " fill="#30F520" transform="translate(264.0625,431.5)"/>
<path d="M0 0 C3.67252395 0.09388407 4.7737103 0.32830687 7.9375 2.4375 C7.6075 4.0875 7.2775 5.7375 6.9375 7.4375 C5.6175 7.4375 4.2975 7.4375 2.9375 7.4375 C2.6075 6.4475 2.2775 5.4575 1.9375 4.4375 C0.6175 4.4375 -0.7025 4.4375 -2.0625 4.4375 C-1.40574028 7.49447699 -1.40574028 7.49447699 0.71484375 8.5 C1.42769531 8.809375 2.14054687 9.11875 2.875 9.4375 C6.14366298 10.86123705 6.85374972 11.31187458 8.9375 14.4375 C8.9375 17.4375 8.9375 17.4375 7.9375 20.4375 C4.5431458 23.00396293 1.90152689 23.67250325 -2.25 23.3125 C-6.0625 22.4375 -6.0625 22.4375 -8.125 21.125 C-9.0625 19.4375 -9.0625 19.4375 -8.9375 17.3125 C-8.64875 16.69375 -8.36 16.075 -8.0625 15.4375 C-7.0725 15.1075 -6.0825 14.7775 -5.0625 14.4375 C-4.4025 14.7675 -3.7425 15.0975 -3.0625 15.4375 C-3.0625 16.4275 -3.0625 17.4175 -3.0625 18.4375 C-1.4125 18.4375 0.2375 18.4375 1.9375 18.4375 C1.9375 17.4475 1.9375 16.4575 1.9375 15.4375 C1.31101562 15.13457031 0.68453125 14.83164062 0.0390625 14.51953125 C-6.71944683 11.05499571 -6.71944683 11.05499571 -8.625 7.625 C-9.0625 5.4375 -9.0625 5.4375 -7.6875 2.9375 C-4.6851074 0.07807848 -3.97698079 0.0522523 0 0 Z " fill="#3BF52C" transform="translate(291.0625,429.5625)"/>
<path d="M0 0 C1.39456452 0.00667256 2.78911118 0.01863093 4.18359375 0.03515625 C4.89451172 0.03966797 5.60542969 0.04417969 6.33789062 0.04882812 C8.09899388 0.06064761 9.86005411 0.07858362 11.62109375 0.09765625 C12.28109375 1.41765625 12.94109375 2.73765625 13.62109375 4.09765625 C9.88671527 4.97633354 6.45334802 5.18677844 2.62109375 5.09765625 C2.29109375 6.08765625 1.96109375 7.07765625 1.62109375 8.09765625 C3.29171875 8.06671875 3.29171875 8.06671875 4.99609375 8.03515625 C8.62109375 8.09765625 8.62109375 8.09765625 10.62109375 9.09765625 C10.29109375 10.41765625 9.96109375 11.73765625 9.62109375 13.09765625 C6.98109375 13.09765625 4.34109375 13.09765625 1.62109375 13.09765625 C1.95109375 14.74765625 2.28109375 16.39765625 2.62109375 18.09765625 C5.92109375 17.76765625 9.22109375 17.43765625 12.62109375 17.09765625 C12.95109375 18.08765625 13.28109375 19.07765625 13.62109375 20.09765625 C13.29109375 20.75765625 12.96109375 21.41765625 12.62109375 22.09765625 C10.32999778 22.1784129 8.03810108 22.23673356 5.74609375 22.28515625 C3.83183594 22.33736328 3.83183594 22.33736328 1.87890625 22.390625 C0.80382812 22.29394531 -0.27125 22.19726562 -1.37890625 22.09765625 C-3.37790178 19.09916296 -3.65284284 18.29810861 -3.828125 14.90234375 C-3.87130859 14.10441406 -3.91449219 13.30648438 -3.95898438 12.484375 C-3.99443359 11.65550781 -4.02988281 10.82664062 -4.06640625 9.97265625 C-4.11345703 9.13605469 -4.16050781 8.29945313 -4.20898438 7.4375 C-4.31335972 5.32603804 -4.35158992 3.21151992 -4.37890625 1.09765625 C-3.37890625 0.09765625 -3.37890625 0.09765625 0 0 Z " fill="#36F527" transform="translate(358.37890625,429.90234375)"/>
<path d="M0 0 C1.65 0.33 3.3 0.66 5 1 C5.33 6.61 5.66 12.22 6 18 C7.98 17.67 9.96 17.34 12 17 C12 11.72 12 6.44 12 1 C13.65 0.67 15.3 0.34 17 0 C19.15904819 2.15904819 18.23159535 6.88884545 18.25 9.875 C18.270625 10.70386719 18.29125 11.53273438 18.3125 12.38671875 C18.31765625 13.18464844 18.3228125 13.98257812 18.328125 14.8046875 C18.34214355 15.90272705 18.34214355 15.90272705 18.35644531 17.02294922 C17.89189047 19.59963763 17.07559059 20.43829213 15 22 C10.30033603 23.0786114 8.08470532 23.41416021 3.5625 21.6875 C1 20 1 20 0 18 C-0.25914998 15.14071189 -0.46597373 12.30231148 -0.625 9.4375 C-0.6765625 8.64408203 -0.728125 7.85066406 -0.78125 7.03320312 C-0.89791295 5.02419842 -0.9538468 3.01185985 -1 1 C-0.67 0.67 -0.34 0.34 0 0 Z " fill="#30F520" transform="translate(113,430)"/>
<path d="M0 0 C1.39456452 0.00667256 2.78911118 0.01863093 4.18359375 0.03515625 C4.89451172 0.03966797 5.60542969 0.04417969 6.33789062 0.04882812 C8.09899388 0.06064761 9.86005411 0.07858362 11.62109375 0.09765625 C11.95109375 1.74765625 12.28109375 3.39765625 12.62109375 5.09765625 C8.99109375 4.76765625 5.36109375 4.43765625 1.62109375 4.09765625 C1.62109375 5.41765625 1.62109375 6.73765625 1.62109375 8.09765625 C2.73484375 8.03578125 3.84859375 7.97390625 4.99609375 7.91015625 C6.79046875 8.00296875 6.79046875 8.00296875 8.62109375 8.09765625 C9.61109375 9.58265625 9.61109375 9.58265625 10.62109375 11.09765625 C10.29109375 11.75765625 9.96109375 12.41765625 9.62109375 13.09765625 C6.98109375 13.09765625 4.34109375 13.09765625 1.62109375 13.09765625 C1.95109375 14.41765625 2.28109375 15.73765625 2.62109375 17.09765625 C5.92109375 17.09765625 9.22109375 17.09765625 12.62109375 17.09765625 C12.29109375 18.74765625 11.96109375 20.39765625 11.62109375 22.09765625 C9.49636799 22.15152254 7.37125723 22.19038696 5.24609375 22.22265625 C4.06273437 22.24585938 2.879375 22.2690625 1.66015625 22.29296875 C-1.37890625 22.09765625 -1.37890625 22.09765625 -3.37890625 20.09765625 C-3.71362305 18.14233398 -3.71362305 18.14233398 -3.828125 15.78125 C-3.87130859 14.93498047 -3.91449219 14.08871094 -3.95898438 13.21679688 C-4.0121582 11.88938477 -4.0121582 11.88938477 -4.06640625 10.53515625 C-4.11345703 9.64634766 -4.16050781 8.75753906 -4.20898438 7.84179688 C-4.43447913 2.99550804 -4.43447913 2.99550804 -4.37890625 1.09765625 C-3.37890625 0.09765625 -3.37890625 0.09765625 0 0 Z " fill="#30F521" transform="translate(307.37890625,429.90234375)"/>
<path d="M0 0 C1.39456452 0.00667256 2.78911118 0.01863093 4.18359375 0.03515625 C4.89451172 0.03966797 5.60542969 0.04417969 6.33789062 0.04882812 C8.09899388 0.06064761 9.86005411 0.07858362 11.62109375 0.09765625 C11.95109375 1.74765625 12.28109375 3.39765625 12.62109375 5.09765625 C8.99109375 4.76765625 5.36109375 4.43765625 1.62109375 4.09765625 C1.62109375 5.41765625 1.62109375 6.73765625 1.62109375 8.09765625 C3.93109375 8.09765625 6.24109375 8.09765625 8.62109375 8.09765625 C8.95109375 9.74765625 9.28109375 11.39765625 9.62109375 13.09765625 C6.98109375 13.09765625 4.34109375 13.09765625 1.62109375 13.09765625 C1.62109375 14.74765625 1.62109375 16.39765625 1.62109375 18.09765625 C5.25109375 17.76765625 8.88109375 17.43765625 12.62109375 17.09765625 C12.29109375 18.74765625 11.96109375 20.39765625 11.62109375 22.09765625 C9.49636799 22.15152254 7.37125723 22.19038696 5.24609375 22.22265625 C4.06273437 22.24585938 2.879375 22.2690625 1.66015625 22.29296875 C-1.37890625 22.09765625 -1.37890625 22.09765625 -3.37890625 20.09765625 C-3.71362305 18.14233398 -3.71362305 18.14233398 -3.828125 15.78125 C-3.87130859 14.93498047 -3.91449219 14.08871094 -3.95898438 13.21679688 C-4.0121582 11.88938477 -4.0121582 11.88938477 -4.06640625 10.53515625 C-4.11345703 9.64634766 -4.16050781 8.75753906 -4.20898438 7.84179688 C-4.43447913 2.99550804 -4.43447913 2.99550804 -4.37890625 1.09765625 C-3.37890625 0.09765625 -3.37890625 0.09765625 0 0 Z " fill="#30F520" transform="translate(424.37890625,429.90234375)"/>
<path d="M0 0 C1.65 0 3.3 0 5 0 C14 17.33333333 14 17.33333333 14 22 C11.625 22.625 11.625 22.625 9 23 C8.34 22.34 7.68 21.68 7 21 C7 20.01 7 19.02 7 18 C4.69 18 2.38 18 0 18 C-0.33 19.32 -0.66 20.64 -1 22 C-2.32 22.33 -3.64 22.66 -5 23 C-5.66 22.01 -6.32 21.02 -7 20 C-6.1028125 18.329375 -6.1028125 18.329375 -5.1875 16.625 C-2.68218623 11.63220387 0 5.67000871 0 0 Z " fill="#30F520" transform="translate(231,430)"/>
<path d="M0 0 C4.31879743 0.03598998 5.83728857 0.09721346 9.5 2.5625 C11.40903797 5.63059673 12.06092266 6.86100182 11.25 10.375 C8.91296171 13.74033514 7.56315563 14.31236887 3.5 15.125 C1.89125 15.24875 1.89125 15.24875 0.25 15.375 C0.25 17.685 0.25 19.995 0.25 22.375 C-1.625 23 -1.625 23 -3.75 23.375 C-6.17684723 20.94815277 -6.04564393 20.17690342 -6.19921875 16.83984375 C-6.24240234 15.94845703 -6.28558594 15.05707031 -6.33007812 14.13867188 C-6.36552734 13.20603516 -6.40097656 12.27339844 -6.4375 11.3125 C-6.48455078 10.37599609 -6.53160156 9.43949219 -6.58007812 8.47460938 C-6.80559495 3.36905633 -6.80559495 3.36905633 -6.75 1.375 C-4.95690039 -0.41809961 -2.42624022 0.07692957 0 0 Z M0.25 3.375 C0.25 6.015 0.25 8.655 0.25 11.375 C1.57 11.045 2.89 10.715 4.25 10.375 C5.02242269 8.53799211 5.02242269 8.53799211 5.25 6.375 C4.02045984 4.56200508 4.02045984 4.56200508 2.25 3.375 C1.59 3.375 0.93 3.375 0.25 3.375 Z " fill="#40F631" transform="translate(58.75,429.625)"/>
<path d="M0 0 C1.65 0 3.3 0 5 0 C14 17.33333333 14 17.33333333 14 22 C11.625 22.625 11.625 22.625 9 23 C8.34 22.34 7.68 21.68 7 21 C7 20.01 7 19.02 7 18 C4.69 18 2.38 18 0 18 C-0.33 19.32 -0.66 20.64 -1 22 C-2.32 22.33 -3.64 22.66 -5 23 C-5.66 22.01 -6.32 21.02 -7 20 C-6.1028125 18.329375 -6.1028125 18.329375 -5.1875 16.625 C-2.68218623 11.63220387 0 5.67000871 0 0 Z M3 9 C2.67 10.98 2.34 12.96 2 15 C2.99 15 3.98 15 5 15 C4.67 13.02 4.34 11.04 4 9 C3.67 9 3.34 9 3 9 Z " fill="#33F524" transform="translate(189,430)"/>
<path d="M0 0 C1.65 0 3.3 0 5 0 C6.34208754 3.10045423 7.67213754 6.20592989 9 9.3125 C9.3815625 10.19357422 9.763125 11.07464844 10.15625 11.98242188 C10.5171875 12.82998047 10.878125 13.67753906 11.25 14.55078125 C11.58515625 15.33106689 11.9203125 16.11135254 12.265625 16.9152832 C13 19 13 19 13 22 C11.1875 22.6875 11.1875 22.6875 9 23 C7.25 21.6875 7.25 21.6875 6 20 C6 19.34 6 18.68 6 18 C1.51315799 18.33867462 1.51315799 18.33867462 -1.875 21.0625 C-2.24625 21.701875 -2.6175 22.34125 -3 23 C-4.32 22.67 -5.64 22.34 -7 22 C-5.54649715 17.54671467 -4.06753502 13.11890812 -2.375 8.75 C-1.2867665 5.78209047 -0.48557935 3.10770783 0 0 Z M2 10 C1.67 11.65 1.34 13.3 1 15 C2.32 14.67 3.64 14.34 5 14 C4.34 12.68 3.68 11.36 3 10 C2.67 10 2.34 10 2 10 Z " fill="#33F523" transform="translate(78,430)"/>
<path d="M0 0 C2.3359375 0.15625 2.3359375 0.15625 5 1 C6.4765625 3.40625 6.4765625 3.40625 7.625 6.5 C8.03363281 7.57765625 8.44226563 8.6553125 8.86328125 9.765625 C10.29215766 13.83129395 11.69891945 17.89132457 13 22 C11.109375 22.58203125 11.109375 22.58203125 9 23 C7.25 21.6875 7.25 21.6875 6 20 C6 19.34 6 18.68 6 18 C3.69 18 1.38 18 -1 18 C-1.33 19.32 -1.66 20.64 -2 22 C-3.32 22.33 -4.64 22.66 -6 23 C-7.4025848 18.79224559 -5.70691865 15.98917364 -4.125 12.0625 C-3.56319671 10.63746927 -3.00324116 9.21170843 -2.4453125 7.78515625 C-2.06656982 6.83974976 -2.06656982 6.83974976 -1.68017578 5.87524414 C-0.97745126 3.93783313 -0.46608225 2.00626468 0 0 Z M2 9 C1.67 10.98 1.34 12.96 1 15 C1.99 15 2.98 15 4 15 C3.67 13.02 3.34 11.04 3 9 C2.67 9 2.34 9 2 9 Z " fill="#32F523" transform="translate(141,430)"/>
<path d="M0 0 C7.59868421 0.09868421 7.59868421 0.09868421 10.75 3.25 C11.8125 6.125 11.8125 6.125 11.75 9.25 C10.3125 12.0625 10.3125 12.0625 7.75 14.25 C5.01585076 14.95827485 2.59861168 15.10756942 -0.25 15.25 C0.08 17.56 0.41 19.87 0.75 22.25 C-1.125 22.875 -1.125 22.875 -3.25 23.25 C-5.67684723 20.82315277 -5.54564393 20.05190342 -5.69921875 16.71484375 C-5.74240234 15.82345703 -5.78558594 14.93207031 -5.83007812 14.01367188 C-5.86552734 13.08103516 -5.90097656 12.14839844 -5.9375 11.1875 C-5.98455078 10.25099609 -6.03160156 9.31449219 -6.08007812 8.34960938 C-6.30559495 3.24405633 -6.30559495 3.24405633 -6.25 1.25 C-4.535532 -0.464468 -2.33657934 0.03748523 0 0 Z M-0.25 3.25 C-0.25 5.89 -0.25 8.53 -0.25 11.25 C1.4 10.92 3.05 10.59 4.75 10.25 C4.75 8.27 4.75 6.29 4.75 4.25 C3.1 3.92 1.45 3.59 -0.25 3.25 Z " fill="#34F524" transform="translate(170.25,429.75)"/>
<path d="M0 0 C3.70096622 0.048127 5.56494897 0.22178871 8.9375 1.875 C10.75 4.3125 10.75 4.3125 11.3125 7.875 C10.75 11.3125 10.75 11.3125 9.1875 13.1875 C6.07011808 14.62629166 3.1511537 14.98546599 -0.25 15.3125 C0.08 17.6225 0.41 19.9325 0.75 22.3125 C-3 23.4375 -3 23.4375 -5.25 22.3125 C-5.44590444 18.83375243 -5.63031592 15.35449096 -5.8125 11.875 C-5.86857422 10.88177734 -5.92464844 9.88855469 -5.98242188 8.86523438 C-6.03076172 7.92099609 -6.07910156 6.97675781 -6.12890625 6.00390625 C-6.1760376 5.12935791 -6.22316895 4.25480957 -6.27172852 3.35375977 C-6.22825416 -0.73038745 -3.45155077 0.08767308 0 0 Z M-0.25 3.3125 C-0.25 5.9525 -0.25 8.5925 -0.25 11.3125 C1.4 10.9825 3.05 10.6525 4.75 10.3125 C4.75 8.6625 4.75 7.0125 4.75 5.3125 C2.275 4.3225 2.275 4.3225 -0.25 3.3125 Z " fill="#31F521" transform="translate(99.25,429.6875)"/>
<path d="M0 0 C0.78246094 -0.01417969 1.56492187 -0.02835937 2.37109375 -0.04296875 C4.5625 0.1875 4.5625 0.1875 7.5625 2.1875 C7.2325 3.8375 6.9025 5.4875 6.5625 7.1875 C4.9125 7.1875 3.2625 7.1875 1.5625 7.1875 C1.5625 5.8675 1.5625 4.5475 1.5625 3.1875 C-0.0875 3.8475 -1.7375 4.5075 -3.4375 5.1875 C-3.7159375 7.0746875 -3.7159375 7.0746875 -4 9 C-4.10441406 9.70769531 -4.20882813 10.41539062 -4.31640625 11.14453125 C-4.57654799 13.3900342 -4.57654799 13.3900342 -3.4375 16.1875 C0.97312136 17.2132259 3.48880576 17.22434712 7.5625 15.1875 C7.29386414 18.50067555 6.97190132 19.82626354 4.4375 22.0625 C0.65259484 23.54354984 -1.53807134 23.25098054 -5.4375 22.1875 C-8.39698803 19.77318082 -10.25810012 17.84915459 -10.67578125 13.98046875 C-10.87730708 6.90585156 -10.87730708 6.90585156 -8.5625 3.125 C-5.58164107 0.40715803 -3.94271389 0.03237039 0 0 Z " fill="#34F525" transform="translate(342.4375,429.8125)"/>
<path d="M0 0 C5.61 0 11.22 0 17 0 C17.33 1.32 17.66 2.64 18 4 C16.02 4 14.04 4 12 4 C12 9.94 12 15.88 12 22 C11.01 22.33 10.02 22.66 9 23 C7.51171875 22.01171875 7.51171875 22.01171875 6 20 C5.78285759 17.18872957 5.71715724 14.6116655 5.8125 11.8125 C5.82603516 11.06291016 5.83957031 10.31332031 5.85351562 9.54101562 C5.88881461 7.69370233 5.94262083 5.84675934 6 4 C4.35 4 2.7 4 1 4 C0.67 2.68 0.34 1.36 0 0 Z " fill="#3EF52F" transform="translate(399,430)"/>
<path d="M0 0 C0.66 0 1.32 0 2 0 C2.185625 1.7015625 2.185625 1.7015625 2.375 3.4375 C2.684375 5.2009375 2.684375 5.2009375 3 7 C3.66 7.33 4.32 7.66 5 8 C5 17.57 5 27.14 5 37 C4.34 37 3.68 37 3 37 C2.67 35.68 2.34 34.36 2 33 C1.34 33 0.68 33 0 33 C0 22.11 0 11.22 0 0 Z " fill="#D57B11" transform="translate(259,295)"/>
<path d="M0 0 C4.47349076 -0.4191516 4.47349076 -0.4191516 6.80078125 1.43359375 C10.07368259 5.77209088 11.89907402 9.0984618 11.54296875 14.61328125 C10.5183017 19.11739325 8.31635731 23.03737445 6 27 C5.01 27 4.02 27 3 27 C3.33 26.01 3.66 25.02 4 24 C2.02 24.99 2.02 24.99 0 26 C0.825 25.030625 1.65 24.06125 2.5 23.0625 C5.04225965 19.4524913 5.73405461 16.74065944 5.5078125 12.3515625 C4.72818138 8.74127072 3.03807918 5.86092668 1.09375 2.75 C0 1 0 1 0 0 Z " fill="#EC830E" transform="translate(369,307)"/>
<path d="M0 0 C0.99 0.495 0.99 0.495 2 1 C1.67 1.66 1.34 2.32 1 3 C1.99 3.495 1.99 3.495 3 4 C-10.86868029 12.66364472 -25.28374327 13.18711255 -41.20654297 13.18530273 C-43.39179197 13.18751702 -45.57655675 13.20581806 -47.76171875 13.22460938 C-49.16145663 13.22753929 -50.56119687 13.22952677 -51.9609375 13.23046875 C-53.84498291 13.23663208 -53.84498291 13.23663208 -55.76708984 13.24291992 C-58.7961684 13.01531585 -60.46614292 12.60081081 -63 11 C-62.20529297 11.00523682 -61.41058594 11.01047363 -60.59179688 11.01586914 C-32.80433986 11.94454988 -32.80433986 11.94454988 -6 6 C-9.96 5.67 -13.92 5.34 -18 5 C-18 4.67 -18 4.34 -18 4 C-16.55367188 3.94392578 -16.55367188 3.94392578 -15.078125 3.88671875 C-13.81484375 3.82097656 -12.5515625 3.75523437 -11.25 3.6875 C-9.99703125 3.62949219 -8.7440625 3.57148438 -7.453125 3.51171875 C-3.96923537 2.99544099 -2.52110204 2.3746744 0 0 Z " fill="#B25D19" transform="translate(367,333)"/>
<path d="M0 0 C1.65 0.33 3.3 0.66 5 1 C5.33 7.93 5.66 14.86 6 22 C4.68 22.33 3.36 22.66 2 23 C-0.42684723 20.57315277 -0.29564393 19.80190342 -0.44921875 16.46484375 C-0.49240234 15.57345703 -0.53558594 14.68207031 -0.58007812 13.76367188 C-0.61552734 12.83103516 -0.65097656 11.89839844 -0.6875 10.9375 C-0.73455078 10.00099609 -0.78160156 9.06449219 -0.83007812 8.09960938 C-1.05559495 2.99405633 -1.05559495 2.99405633 -1 1 C-0.67 0.67 -0.34 0.34 0 0 Z " fill="#2AF41A" transform="translate(272,430)"/>
<path d="M0 0 C8.19482419 -0.2526081 15.76894119 0.4145371 23.8125 1.9375 C37.09311392 4.29004251 49.96260132 5.15468115 63.44140625 4.9375 C66.74379891 4.99550031 69.76512609 5.36199713 73 6 C73 6.33 73 6.66 73 7 C48.62921785 7.68437536 23.88908935 6.07283373 0 1 C0 0.67 0 0.34 0 0 Z " fill="#AB6C1C" transform="translate(206,286)"/>
<path d="M0 0 C19.56102534 0.84133442 38.97632719 5.69154901 58 10 C58 10.33 58 10.66 58 11 C49.7470608 10.70366466 42.00775094 9.50743928 33.96826172 7.73242188 C26.60698749 6.10726222 19.21753108 4.66163612 11.8125 3.25 C10.6469458 3.02731445 9.4813916 2.80462891 8.28051758 2.57519531 C5.52061181 2.04871183 2.76045685 1.52358507 0 1 C0 0.67 0 0.34 0 0 Z " fill="#C97016" transform="translate(246,333)"/>
<path d="M0 0 C0.495 1.485 0.495 1.485 1 3 C0.34 3 -0.32 3 -1 3 C-1.226875 3.556875 -1.45375 4.11375 -1.6875 4.6875 C-4.63564245 9.88184623 -8.63010586 12.64342775 -14 15 C-21.67372229 16.82495716 -28.51122107 17.69596041 -36 15 C-32.74962643 13.0589104 -30.44368401 12.80467878 -26.6875 12.9375 C-19.10339498 13.18633654 -14.12487533 12.75306914 -8.25 7.625 C-7.32703125 6.83351562 -6.4040625 6.04203125 -5.453125 5.2265625 C-3.57975057 3.52620673 -1.75852937 1.81714701 0 0 Z " fill="#22B20C" transform="translate(357,156)"/>
<path d="M0 0 C0.66 0.33 1.32 0.66 2 1 C-16.34332425 18 -16.34332425 18 -21 18 C-21 18.66 -21 19.32 -21 20 C-21.81984375 20.26554687 -22.6396875 20.53109375 -23.484375 20.8046875 C-25.10085938 21.33449219 -25.10085938 21.33449219 -26.75 21.875 C-27.81734375 22.22304688 -28.8846875 22.57109375 -29.984375 22.9296875 C-32.92491693 23.88539531 -32.92491693 23.88539531 -35.203125 25.1953125 C-37 26 -37 26 -40 25 C-35.05 22.69 -30.1 20.38 -25 18 C-25.66 17.01 -26.32 16.02 -27 15 C-25.68 15.33 -24.36 15.66 -23 16 C-22.67 15.01 -22.34 14.02 -22 13 C-21.67 13.66 -21.34 14.32 -21 15 C-15.65365124 13.41824001 -11.8822769 9.88376781 -7.6875 6.375 C-6.94693359 5.76398438 -6.20636719 5.15296875 -5.44335938 4.5234375 C-3.62419549 3.02116023 -1.81001549 1.513276 0 0 Z " fill="#C06819" transform="translate(406,318)"/>
<path d="M0 0 C7.28415973 7.09247132 7.28415973 7.09247132 7.4375 12.0625 C7.35290283 17.77750877 4.82979004 22.15903776 2 27 C1.01 27 0.02 27 -1 27 C-0.67 26.01 -0.34 25.02 0 24 C-1.98 24.99 -1.98 24.99 -4 26 C-2.35 23.69 -0.7 21.38 1 19 C1.66 19.33 2.32 19.66 3 20 C5.24089661 15.65002424 5.16045265 12.72470009 4 8 C2.7295036 5.95950578 1.40568804 3.94982535 0 2 C0 1.34 0 0.68 0 0 Z " fill="#C37123" transform="translate(373,307)"/>
<path d="M0 0 C0.66 0.33 1.32 0.66 2 1 C-1.3246126 3.34596881 -4.65956255 5.67662311 -8 8 C-8.79921875 8.55945313 -9.5984375 9.11890625 -10.421875 9.6953125 C-17.6453042 14.65207943 -23.06627658 17.47019597 -32 17 C-32 16.67 -32 16.34 -32 16 C-30.7521875 15.80535156 -29.504375 15.61070312 -28.21875 15.41015625 C-21.94767275 14.0156279 -16.91482078 10.78215991 -11.5 7.4375 C-10.4996875 6.83486328 -9.499375 6.23222656 -8.46875 5.61132812 C-3.99535765 3.12710275 -3.99535765 3.12710275 0 0 Z " fill="#C36917" transform="translate(310,370)"/>
<path d="M0 0 C9.99534362 -0.51998897 19.25134921 1.05951027 29 3 C29 3.66 29 4.32 29 5 C19.26571024 3.99337378 9.59441093 2.98650799 0 1 C0 0.67 0 0.34 0 0 Z " fill="#CE7618" transform="translate(206,286)"/>
<path d="M0 0 C0.66 0 1.32 0 2 0 C2.268125 0.639375 2.53625 1.27875 2.8125 1.9375 C3.88667752 4.33131686 3.88667752 4.33131686 7 5 C7 5.99 7 6.98 7 8 C9.475 8.99 9.475 8.99 12 10 C12 10.33 12 10.66 12 11 C10.35 11 8.7 11 7 11 C7 10.34 7 9.68 7 9 C5.35 9.33 3.7 9.66 2 10 C-0.09350689 6.5980513 -0.17942163 3.94727588 0 0 Z " fill="#34B321" transform="translate(304,157)"/>
<path d="M0 0 C0.66 0.33 1.32 0.66 2 1 C1.3503125 1.5878125 1.3503125 1.5878125 0.6875 2.1875 C-1.10340714 3.96755252 -1.10340714 3.96755252 -2.3125 6.34375 C-4.14414411 9.22689351 -6.09811303 11.09838651 -8.6875 13.3125 C-9.49574219 14.00988281 -10.30398437 14.70726562 -11.13671875 15.42578125 C-12.05904297 16.20501953 -12.05904297 16.20501953 -13 17 C-13 12.94040721 -11.48221464 11.99302054 -8.75 9.0625 C-7.96109375 8.20785156 -7.1721875 7.35320313 -6.359375 6.47265625 C-4.26955727 4.28249959 -2.15278435 2.12809646 0 0 Z " fill="#64EC4B" transform="translate(190,31)"/>
<path d="M0 0 C0 0.66 0 1.32 0 2 C-3.3 2.66 -6.6 3.32 -10 4 C-10.33 4.99 -10.66 5.98 -11 7 C-15.61073111 8.29676812 -19.33840089 7.71109139 -24 7 C-19.94545492 4.8694828 -15.82073687 3.64743332 -11.4375 2.375 C-10.66986328 2.14554687 -9.90222656 1.91609375 -9.11132812 1.6796875 C-8.37205078 1.463125 -7.63277344 1.2465625 -6.87109375 1.0234375 C-6.20005615 0.82669434 -5.52901855 0.62995117 -4.83764648 0.42724609 C-3 0 -3 0 0 0 Z " fill="#D89351" transform="translate(345,288)"/>
<path d="M0 0 C-3.95365973 1.53318781 -7.91360053 3.04943425 -11.875 4.5625 C-13.56689453 5.21895508 -13.56689453 5.21895508 -15.29296875 5.88867188 C-16.36933594 6.29794922 -17.44570313 6.70722656 -18.5546875 7.12890625 C-20.04718018 7.70233765 -20.04718018 7.70233765 -21.56982422 8.28735352 C-24 9 -24 9 -26 8 C-21.0372492 4.96648609 -16.30692698 2.87220268 -10.75 1.1875 C-10.04359375 0.95869141 -9.3371875 0.72988281 -8.609375 0.49414062 C-3.37769238 -1.12589746 -3.37769238 -1.12589746 0 0 Z " fill="#C96D16" transform="translate(356,349)"/>
<path d="M0 0 C2.31 0.66 4.62 1.32 7 2 C6.01 2.66 5.02 3.32 4 4 C3.67 4.66 3.34 5.32 3 6 C2.34 5.34 1.68 4.68 1 4 C-1.81402683 3.62760773 -1.81402683 3.62760773 -5.1015625 3.5859375 C-6.31328125 3.54726563 -7.525 3.50859375 -8.7734375 3.46875 C-10.04445313 3.4378125 -11.31546875 3.406875 -12.625 3.375 C-13.90375 3.33632813 -15.1825 3.29765625 -16.5 3.2578125 C-19.66652017 3.16328951 -22.8330304 3.07773643 -26 3 C-26 2.67 -26 2.34 -26 2 C-17.42 1.67 -8.84 1.34 0 1 C0 0.67 0 0.34 0 0 Z " fill="#AA7442" transform="translate(366,304)"/>
<path d="M0 0 C0.33 0 0.66 0 1 0 C1.33 5.94 1.66 11.88 2 18 C3.65 18.33 5.3 18.66 7 19 C9.39228689 19.89305874 11.66943362 20.94896026 14 22 C11.26980214 23.06528748 10.20701188 23.07998186 7.421875 22.00390625 C3.7109375 20.00195312 3.7109375 20.00195312 0 18 C0 12.06 0 6.12 0 0 Z " fill="#0ADC02" transform="translate(243,265)"/>
<path d="M0 0 C-0.639375 0.103125 -1.27875 0.20625 -1.9375 0.3125 C-2.618125 0.539375 -3.29875 0.76625 -4 1 C-4.33 1.99 -4.66 2.98 -5 4 C-6.85546875 4.6953125 -6.85546875 4.6953125 -9.1875 5.125 C-9.99445313 5.2796875 -10.80140625 5.434375 -11.6328125 5.59375 C-12.41398438 5.7278125 -13.19515625 5.861875 -14 6 C-15.7634375 6.309375 -15.7634375 6.309375 -17.5625 6.625 C-18.366875 6.74875 -19.17125 6.8725 -20 7 C-17.01337713 4.54745557 -14.19055917 3.12584735 -10.5625 1.8125 C-9.63566406 1.46832031 -8.70882812 1.12414062 -7.75390625 0.76953125 C-5.02272364 0.00634973 -2.81820315 -0.14832648 0 0 Z " fill="#61DF5E" transform="translate(226,169)"/>
<path d="M0 0 C0.33 0.66 0.66 1.32 1 2 C-0.81291649 5.81666629 -2.29070176 7.20517827 -6 9 C-6.33 9.680625 -6.66 10.36125 -7 11.0625 C-8 13 -8 13 -10 13.8125 C-12 14 -12 14 -14 13 C-13.40832031 12.56429687 -12.81664062 12.12859375 -12.20703125 11.6796875 C-7.49151592 8.12574283 -3.56301983 4.71238107 0 0 Z " fill="#61F258" transform="translate(369,173)"/>
<path d="M0 0 C0.66 0.33 1.32 0.66 2 1 C1.67 1.66 1.34 2.32 1 3 C1.66 3.33 2.32 3.66 3 4 C0.6875 5.5625 0.6875 5.5625 -2 7 C-2.99 6.67 -3.98 6.34 -5 6 C-7.22574335 5.77548542 -9.45581519 5.59217122 -11.6875 5.4375 C-13.45673828 5.31181641 -13.45673828 5.31181641 -15.26171875 5.18359375 C-16.16535156 5.12300781 -17.06898438 5.06242187 -18 5 C-18 4.67 -18 4.34 -18 4 C-16.55367188 3.94392578 -16.55367188 3.94392578 -15.078125 3.88671875 C-13.81484375 3.82097656 -12.5515625 3.75523437 -11.25 3.6875 C-9.99703125 3.62949219 -8.7440625 3.57148438 -7.453125 3.51171875 C-3.96923537 2.99544099 -2.52110204 2.3746744 0 0 Z " fill="#C17731" transform="translate(367,333)"/>
<path d="M0 0 C1.93773248 3.2603118 2.27072187 5.72861936 2.25 9.5 C2.25515625 10.4384375 2.2603125 11.376875 2.265625 12.34375 C1.99595232 15.04047676 1.3732259 16.68949293 0 19 C-0.66 17.35 -1.32 15.7 -2 14 C-1.67 13.67 -1.34 13.34 -1 13 C-0.76518307 10.81707226 -0.58636677 8.62796826 -0.4375 6.4375 C-0.35371094 5.23996094 -0.26992188 4.04242188 -0.18359375 2.80859375 C-0.12300781 1.88175781 -0.06242187 0.95492187 0 0 Z " fill="#69DC58" transform="translate(358,140)"/>
<path d="M0 0 C-3.30024232 1.69385931 -6.65786026 3.21510933 -10.0625 4.6875 C-11.10535156 5.14511719 -12.14820313 5.60273438 -13.22265625 6.07421875 C-16 7 -16 7 -19 6 C-6.51480638 -0.88838269 -6.51480638 -0.88838269 0 0 Z " fill="#CC6D16" transform="translate(385,337)"/>
<path d="M0 0 C1 2 1 2 0.25 5.4375 C-0.90289119 8.7232399 -1.39608816 9.91687053 -4 12 C-5.00613103 12.99383114 -6.00693938 13.99310845 -7 15 C-5.34292168 9.35086937 -3.52237988 4.73699363 0 0 Z " fill="#71EF5C" transform="translate(175,48)"/>
<path d="M0 0 C6.88834855 6.70707622 6.88834855 6.70707622 7.1953125 10.26171875 C7.16050781 11.46248047 7.16050781 11.46248047 7.125 12.6875 C7.10695313 13.49574219 7.08890625 14.30398438 7.0703125 15.13671875 C7.03550781 16.05904297 7.03550781 16.05904297 7 17 C6.34 17.33 5.68 17.66 5 18 C5.1546875 16.2675 5.1546875 16.2675 5.3125 14.5 C5.35305011 9.94216741 3.69940535 7.29750412 1.09375 3.6640625 C0 2 0 2 0 0 Z " fill="#C56C18" transform="translate(373,307)"/>
<path d="M0 0 C1.32 0 2.64 0 4 0 C5.625 3.3125 5.625 3.3125 7 7 C6.01 8.485 6.01 8.485 5 10 C4.1641146 8.52227402 3.33135744 7.04277811 2.5 5.5625 C2.0359375 4.73878906 1.571875 3.91507812 1.09375 3.06640625 C0 1 0 1 0 0 Z " fill="#E48218" transform="translate(369,307)"/>
<path d="M0 0 C0.66 0.33 1.32 0.66 2 1 C-4.435 6.94 -4.435 6.94 -11 13 C-11.66 12.67 -12.32 12.34 -13 12 C-4.738041 3.55353075 -4.738041 3.55353075 0 0 Z " fill="#C36818" transform="translate(446,284)"/>
<path d="M0 0 C0.66 0.33 1.32 0.66 2 1 C-1.63 4.63 -5.26 8.26 -9 12 C-9 8.47601214 -8.44884893 7.98495633 -6.1875 5.4375 C-5.40439453 4.53837891 -5.40439453 4.53837891 -4.60546875 3.62109375 C-3 2 -3 2 0 0 Z " fill="#6EFA57" transform="translate(315,124)"/>
<path d="M0 0 C2.25245881 2.68841859 3.88213958 4.64641875 5 8 C1.88801935 6.50163895 -1.0534615 4.80066242 -4 3 C-2.68 2.67 -1.36 2.34 0 2 C0 1.34 0 0.68 0 0 Z " fill="#7CE877" transform="translate(293,170)"/>
<path d="M0 0 C0.99 0 1.98 0 3 0 C2.98839844 0.88042969 2.97679687 1.76085937 2.96484375 2.66796875 C2.95582031 3.82941406 2.94679687 4.99085937 2.9375 6.1875 C2.92589844 7.33605469 2.91429687 8.48460937 2.90234375 9.66796875 C2.98807168 12.59300586 3.32150977 15.16316291 4 18 C2 17 2 17 1 14 C0.931009 11.93854893 0.91532273 9.87498599 0.9375 7.8125 C0.94652344 6.72582031 0.95554688 5.63914062 0.96484375 4.51953125 C0.97644531 3.68808594 0.98804688 2.85664063 1 2 C0.34 1.67 -0.32 1.34 -1 1 C-0.67 0.67 -0.34 0.34 0 0 Z " fill="#9FF186" transform="translate(193,29)"/>
<path d="M0 0 C0.33 0.66 0.66 1.32 1 2 C0.06553465 4.03144641 -0.93224776 6.03533587 -2 8 C-3.98 8 -5.96 8 -8 8 C-5.33333333 5.33333333 -2.66666667 2.66666667 0 0 Z " fill="#EE810E" transform="translate(374,329)"/>
<path d="M0 0 C1.258125 0.12375 2.51625 0.2475 3.8125 0.375 C4.87404297 0.47941406 4.87404297 0.47941406 5.95703125 0.5859375 C8 1 8 1 11 3 C7.7 3 4.4 3 1 3 C0.67 2.01 0.34 1.02 0 0 Z " fill="#949612" transform="translate(257,288)"/>
<path d="M0 0 C0.33 0 0.66 0 1 0 C1 2.64 1 5.28 1 8 C-0.98 8.33 -2.96 8.66 -5 9 C-4.34 7.35 -3.68 5.7 -3 4 C-2.01 4 -1.02 4 0 4 C0 2.68 0 1.36 0 0 Z " fill="#C4966C" transform="translate(473,245)"/>
<path d="M0 0 C0.66 0.33 1.32 0.66 2 1 C-0.97 3.64 -3.94 6.28 -7 9 C-7.66 8.67 -8.32 8.34 -9 8 C-6.03 5.36 -3.06 2.72 0 0 Z " fill="#C76B17" transform="translate(417,309)"/>
<path d="M0 0 C5.11476819 -0.63934602 8.67254378 1.59466453 13 4 C10.44855176 4.93045933 9.25993522 5.08564091 6.640625 4.22265625 C5.85171875 3.83980469 5.0628125 3.45695312 4.25 3.0625 C3.45078125 2.68222656 2.6515625 2.30195313 1.828125 1.91015625 C1.22484375 1.60980469 0.6215625 1.30945313 0 1 C0 0.67 0 0.34 0 0 Z " fill="#4DA411" transform="translate(244,283)"/>
<path d="M0 0 C0.66 0.33 1.32 0.66 2 1 C-1.5087188 4.09592835 -4.49197399 5.74194623 -9 7 C-6.25604436 4.05278838 -3.61662784 1.80831392 0 0 Z " fill="#BC8E6A" transform="translate(397,340)"/>
<path d="M0 0 C0.99 0 1.98 0 3 0 C3 0.99 3 1.98 3 3 C5.475 3.99 5.475 3.99 8 5 C8 5.33 8 5.66 8 6 C6.35 6 4.7 6 3 6 C3 5.34 3 4.68 3 4 C2.34 4 1.68 4 1 4 C0.67 2.68 0.34 1.36 0 0 Z " fill="#21B30C" transform="translate(308,162)"/>
<path d="M0 0 C2 2 2 2 2.125 4.625 C2.08375 5.40875 2.0425 6.1925 2 7 C0.68 7 -0.64 7 -2 7 C-1.34 4.69 -0.68 2.38 0 0 Z " fill="#D9FDD6" transform="translate(234,438)"/>
<path d="M0 0 C0.33 0.66 0.66 1.32 1 2 C-0.68474722 5.36949443 -1.8191658 6.87944386 -5 9 C-4.42647107 5.12867972 -2.51295648 2.91827204 0 0 Z " fill="#53F149" transform="translate(369,173)"/>
<path d="M0 0 C0.66 0 1.32 0 2 0 C0.25 5.75 0.25 5.75 -2 8 C-2.6875 6.25 -2.6875 6.25 -3 4 C-1.6875 1.75 -1.6875 1.75 0 0 Z " fill="#42B232" transform="translate(356,159)"/>
<path d="M0 0 C0.99 0.33 1.98 0.66 3 1 C3 2.32 3 3.64 3 5 C3.99 5.33 4.98 5.66 6 6 C5.01 7.485 5.01 7.485 4 9 C0 2.25 0 2.25 0 0 Z " fill="#63EC5A" transform="translate(169,116)"/>
<path d="" fill="#C2C3C0" transform="translate(0,0)"/>
<path d="" fill="#BFBFBB" transform="translate(0,0)"/>
<path d="" fill="#D2D2D1" transform="translate(0,0)"/>
</svg>
